<?xml version="1.0" encoding="UTF-8"?>
<!DOCTYPE svg PUBLIC "-//W3C//DTD SVG 1.1//EN" "http://www.w3.org/Graphics/SVG/1.1/DTD/svg11.dtd">
<!-- Creator: CorelDRAW 2017 -->
<svg xmlns="http://www.w3.org/2000/svg" xml:space="preserve" width="63.9653mm" height="70.7033mm" version="1.1" style="shape-rendering:geometricPrecision; text-rendering:geometricPrecision; image-rendering:optimizeQuality; fill-rule:evenodd; clip-rule:evenodd"
viewBox="0 0 5080.73 5615.92"
 xmlns:xlink="http://www.w3.org/1999/xlink">
 <defs>
  <style type="text/css">
   <![CDATA[
    .fil1 {fill:black}
    .fil0 {fill:black;fill-rule:nonzero}
   ]]>
  </style>
 </defs>
 <g id="Capa_x0020_1">
  <metadata id="CorelCorpID_0Corel-Layer"/>
  <path class="fil0" d="M4222.9 4088.31c-0.63,-1.13 -0.96,-1.45 -0.63,-3.26 1.42,-11.81 8.84,-33.62 38.36,-21.16 0.82,0.14 3.09,1.3 3.42,2.28 0.84,1.63 16.58,29.2 35.62,70.87 30.51,65.61 64.31,147.62 89.37,236.06 24.98,88.75 41.87,185.23 32.18,274.76 -5.12,43.95 -13.11,84.01 -22.49,120.41 -4.76,18.03 -9.36,35.11 -14.94,51l-7.52 22.66 -5.72 15.9c-8.71,23.47 -15.43,37.43 -15.43,37.43 0.63,0.33 -34.15,66.28 -69.4,104.29 -28.35,33.3 -42.3,38.09 -42.3,32.01 -0.19,-6.24 9.99,-24.79 21.48,-47.91 -1.48,1.97 13.96,-24.6 26.41,-53.66 12.8,-28.48 23.65,-58.67 23.65,-58.67l3.88 -9.39 10.04 -27.09c18.2,-48.55 38.23,-119.86 46.6,-199.62 7.03,-78.9 -8.56,-168.98 -32.51,-252.3 -24.13,-83.98 -56.45,-162.71 -85.97,-225.84 -18.69,-40.56 -33.3,-67.62 -34.1,-68.78z"/>
  <path class="fil0" d="M3310.39 4628.99c-1.29,-0.49 -1.43,-0.49 -2.27,-2.14 -5.91,-10.51 -12.97,-32.31 18.55,-39.83 0.47,-0.2 3.26,-0.69 4.11,0 1.48,0.65 30.16,14.09 70.52,36.23 57.77,31.66 131.76,77.6 198.99,127.46 67.42,49.88 127.63,103.69 164.7,141.58 19.32,19.54 30.51,31.99 30.51,31.99 0,-0.17 45.75,57.71 68.91,103.85 20.17,38.36 21.81,52.49 15.7,50.68 -6.37,-1.32 -20.63,-17.57 -38.22,-36.92 1.18,2.46 -18.36,-22 -39.98,-44.96 -21.48,-23.12 -44.96,-45.26 -44.96,-45.26l-25.45 -26.6c-33.6,-34.59 -91.04,-86.77 -157.45,-134.99 -65.16,-49.2 -138.6,-94.48 -195.19,-125.65 -39.4,-21.35 -67.28,-34.62 -68.46,-35.44z"/>
  <path class="fil0" d="M3433.61 4544.24c-39.05,0.33 -72.49,7.9 -105.66,19.7 -33.14,12.29 -66.57,30.33 -103.02,60.18 -15.08,12.31 -41.35,34.45 -70.36,65.95 -16.42,17.56 -38.36,44.43 -54.65,67.28 -17.21,22.77 -28.54,41.79 -28.54,41.79 -0.65,-0.44 -40.18,64.63 -59.72,109.62 -26.23,56.07 -42.76,104.01 -50.68,127.79 -28.36,88.06 -31.15,142.38 -26.41,219.99 32.32,-70.74 54.5,-116.82 82.69,-201 7.56,-22.63 23.61,-68.38 48.4,-121.69 18.55,-42.82 55.08,-103.19 55.61,-103.03 0,0 11.16,-17.54 26.4,-38.36 15.57,-21.34 35.77,-45.94 50.52,-62.17 26.74,-28.87 50.22,-49.4 63.97,-60.56 33.17,-27.59 60.37,-47.89 86.12,-67.56 26.27,-19.54 51.01,-39.38 85.32,-57.93z"/>
  <path class="fil0" d="M2272.19 3955.82c1.12,-2.09 1.49,-2.92 5.25,-4.88 10.32,-6.92 27.06,-13.3 42.46,-9.71 15.43,3.63 29.19,16.93 37.09,46.59 0.14,1.49 0.97,6.24 0.66,8.05 -0.98,2.65 -27.71,56.45 -54.81,139.8 -36.55,108.57 -66.42,258.66 -60.37,403.2 3.11,72.02 13.81,141.72 30.68,202.93 16.23,61.32 38.36,114 57.75,154.5 22.8,45.45 40.37,71.72 40.18,71.72 0,0 15.58,30.49 39.84,69.89 24.46,39.84 59.07,87.92 89.25,126.94 53.66,64.63 69.23,87.43 56.12,89.1 -12.65,1.29 -52.18,-19.87 -94.99,-54.12 3.61,4.73 -46.6,-36.62 -91.85,-86.5 -45.8,-49.01 -84.81,-106.97 -84.81,-106.97 0.47,0 -15.44,-25.04 -37.57,-68.52 -20.83,-42.69 -44.96,-99.94 -63.15,-166.84 -18.88,-67.26 -31.53,-144.35 -35.1,-223.59 -7.41,-159.12 25.43,-323.37 64.44,-441.14 28.86,-88.57 57.23,-147.31 58.91,-150.43z"/>
  <path class="fil0" d="M1860.15 5451.03c-0.14,0.85 -0.14,1.32 -1.49,2.3 -3.9,4.13 -9.81,9.19 -17.2,11.14 -7.07,2.65 -17.71,1.18 -26.74,-13.96 -0.33,-0.77 -1.49,-3.23 -1.49,-4.41 0.83,-1.12 1.16,-40.69 33.63,-83.13 21.02,-28.1 54.82,-50.68 91.89,-63.68l105 -38.52 181.07 -68.28 40.87 -15.89c0,0 68.4,-20.99 117.59,-32.45 82.86,-21.34 55.1,0.63 7.74,24.89 5.72,-0.82 -114.49,53.64 -114.49,53.64l-34.77 13.5 -179.64 67.86 -106.16 39.08c-31.48,10.83 -56.92,28.57 -71.84,48.35 -23.11,30.37 -23.44,59.06 -23.95,59.57z"/>
  <path class="fil0" d="M2068.56 5365.58c-38.69,2.46 -65.1,5.58 -107.79,20.69 -9.34,3.26 -24.58,8.83 -43.8,16.55 -17.52,6.54 -48.69,20.5 -48.69,20.83 0,0 -26.74,11.95 -43.34,23.64 -7.2,4.6 -13.96,9.33 -19.87,16.23 -6.23,7.39 -9,13.61 -12.12,20.17 -5.4,12.65 -6.88,23.81 -6.88,31.17 -1.13,27.26 11.48,49.37 28.73,60.06 18.05,10.79 37.9,9.83 55.75,3.12 -19.19,-2.46 -33.15,-9.85 -42.31,-20.03 -8.69,-10.17 -13.77,-23.45 -12.65,-41.68 -0.14,-5.06 0.65,-12.64 4.79,-21.15 4.23,-9.52 8.18,-15.43 20.51,-23.12 14.07,-9.52 39.84,-21.67 39.84,-21.53 0,-0.14 30.18,-13.57 47.38,-20.11l42.32 -16.28c42.51,-15.41 64.82,-28.38 98.11,-48.55z"/>
  <path class="fil0" d="M2956.38 5197.84c21.17,21.81 34.93,47.12 32.98,64.63 -1.17,8.37 -5.45,14.47 -13.11,22 -7.91,7.42 -19.54,14.94 -34.32,22.33 -12.13,6.38 -33.77,15.57 -64.77,25.07 -90.55,29.52 -223.77,60.53 -333.83,88.96 -109.93,27.83 -196.04,54.26 -195.86,54.59 -0.33,-0.47 -72.21,23.94 -168.46,49.56 -48.27,12.29 -103.04,25.07 -157.18,34.07 -27.38,4.49 -54.77,8.07 -80.53,9.03 -12.78,0.38 -25.11,0.19 -35.62,-1.1 -5.4,-0.65 -8.37,-1.64 -11.8,-3.12 -3.12,-1.31 -5.91,-3.96 -5.72,-3.77 0.46,-1.04 -1.49,1.78 2.27,-4.13 3.76,-5.07 10,-10.48 16.74,-15.08 12.46,-9.01 25.43,-14.92 33.48,-18.89 62.96,-27.88 101.18,-44.58 156.15,-73.77 -31.49,-0.33 -57.57,0.3 -84.82,4.22 -27.7,4.46 -55.93,11.02 -91.19,26.4 -9.19,4.93 -23.79,11.5 -40.87,23.32 -9.02,6.21 -18.36,13.49 -27.86,25.75 -4.42,6.24 -9.35,14.28 -11.34,26.27 -1.63,11.3 1.49,23.64 8.88,33.11 7.71,10.02 15.58,15.43 23.43,19.4 8.69,4.07 18.24,6.38 25.77,7.53 15.45,1.97 29.86,1.97 44.46,1.31 29.2,-0.98 57.42,-4.92 86.3,-9.69 56.41,-9.19 112.34,-22.46 161.26,-35.3 98.58,-25.7 170.61,-50.49 170.24,-50.16 0,-0.19 84.81,-25.91 194.09,-53.8 109.41,-27.91 243.28,-59.24 336.43,-89.76 31.33,-9.17 57.94,-20.33 72.02,-28.05 17.91,-9.33 33.17,-20.17 44.97,-35.11 12.61,-14.58 19.67,-36.39 15.24,-55.08 -4.46,-18.42 -15.43,-30.87 -27.05,-40.06 -12,-9.19 -25.44,-15.73 -40.38,-20.68z"/>
  <path class="fil0" d="M3834.27 5059.26c-18.22,6.76 -34.48,16.88 -47.07,32.97 -12.97,15.13 -17.9,41.21 -9.85,62.69 7.39,21.61 21.98,38.23 38.23,51.8 16.72,13.81 35.74,25.28 57.74,35.3 17.87,8.18 50.18,20.82 90.03,32.8 82.54,25.07 201.81,46.44 298.41,60.83l173.58 26.93 152.06 22.65c86.96,12.45 194.72,27.53 282.94,32.13l25.31 0.66c12.92,0.19 27.83,-0.14 40.17,-1.64 25.43,-3.12 39.38,-11.63 46.08,-22.14 3.61,-4.92 6.4,-14.12 6.24,-20.36 -0.17,-6.05 -1.12,-11.17 -3.58,-16.04 -4.3,-10.18 -13.63,-19.07 -22.14,-25.97 -8.24,-6.21 -17.4,-11.79 -26.27,-17.18 -9.69,-5.26 -17.87,-9.69 -22,-11.36 -9.5,-4.87 -18.69,-8.84 -27.4,-12.45 -17.7,-7.04 -34.59,-12.62 -51.14,-17.08 -33.5,-9.17 -65.48,-14.58 -104.04,-20.17 31.49,22.96 57.9,41.84 86.44,59.73 14.09,9.17 29.09,17.74 44.99,26.74l24.41 14.09c5.25,3.12 6.08,3.65 5.91,3.65 0,0.46 0,0.46 0.17,0.66 0,0 0.16,0 0,0.33l-0.33 -0.2 -19.83 -0.79c-83.33,-4.3 -191.58,-19.21 -277.42,-31.03l-151.73 -22.3 -173.08 -27.39c-97.09,-14.62 -212.59,-35.44 -290.47,-59.06 -37.93,-11.49 -67.13,-22.79 -82.88,-30.04 -38.36,-17.22 -67.24,-33.44 -81.18,-51.18 -6.74,-9 -10.32,-18.85 -7.06,-33.65 2.98,-13.91 11.82,-29.53 24.79,-43.95z"/>
  <path class="fil0" d="M5038.82 5375.89c-1.32,0.33 -1.64,0.52 -3.94,0.19 -7.42,-0.19 -16.12,-4.27 -20.01,-11.16 -3.77,-7.2 -2.14,-16.75 3.42,-29.34 0,-0.38 0.79,-2.16 1.64,-2.65 0,-0.33 6.4,-2.6 10.83,-7.39 1.8,-2.3 2.92,-3.77 2.92,-6.89 0.33,-3.26 -1.12,-9.33 -5.19,-17.08 -11.17,-19.51 -34.15,-41.32 -58.42,-61.32 -25.75,-19.84 -54.95,-38.72 -86.12,-55.8 -62.56,-34.29 -131.73,-63.78 -195.08,-87.9 -31.8,-11.98 -62.17,-22.82 -89.87,-31.85l-39.4 -12.97 -30.68 -9.66 -37.71 -10.83c0,-0.14 -66.8,-24.08 -113.84,-42.34 -80.23,-28.35 -45.62,-31.27 7.52,-24.89 -4.59,-3.12 125.33,23.15 125.2,23.77l38.67 11.49c41.68,12.81 99.28,31.5 162.76,55.96 63.81,24.08 133.18,53.94 197.49,89.7 32.32,17.9 63.03,37.24 90.91,59.38 27.2,22.17 51.99,44.12 69.72,74.81 6.4,11.63 11.99,26.22 10.95,41.84 -0.29,15.4 -7.86,29.17 -15.38,36.55 -14.77,14.92 -25.28,17.38 -26.4,18.36z"/>
  <path class="fil0" d="M4983.84 5401.7c-0.98,0 -1.28,0.14 -2.46,-0.33 -4.07,-1.15 -9.33,-3.95 -10.97,-8.38 -1.15,-5.06 0.14,-9.98 4.57,-17.37 0,-0.33 1.15,-1.18 1.8,-1.51 0.2,-0.14 4.27,-0.96 10.71,-3.75 6.21,-2.46 14.91,-7.39 18.03,-13.96 3.45,-5.25 2.14,-13.96 -5.45,-24.6 -7.2,-10.51 -18.03,-21.15 -29.2,-30.05 -23.28,-18.36 -49.36,-32.78 -66.08,-41.45l-22.96 -11.68 -63.02 -35.58c-45.62,-23.28 -24.6,-22.46 6.43,-14.28 -2.47,-2.27 72.62,25.45 72.15,26.24l20.33 10.17c16.91,9.03 43.48,23.48 69.56,43.81 13.11,9.98 25.56,21.98 35.96,36.59 5.07,7.53 9.33,15.57 11.14,25.12 1.97,9.47 0.79,20.63 -3.61,28.67 -9.88,17.7 -23.8,22.8 -32.18,27.06 -8.51,3.78 -14.09,4.93 -14.75,5.26z"/>
  <path class="fil0" d="M2948.99 2333.41c-1.3,-0.82 -1.94,-0.97 -2.6,-3.43 -6.09,-16.23 -9.21,-48.08 35.43,-50.68 0.83,0 4.6,0.14 5.9,0.98l88.06 64.77c64.63,47.77 149.46,110.91 229.2,175.4l29.66 24.6c10.02,8.38 19.87,17.4 28.9,26.74 18.89,18.38 34.92,37.57 49.51,56.26 29.39,37.59 50.87,73.67 66.43,103.19 18.58,34.6 27.42,57.24 27.42,57.24 0,0 9.33,24.6 17.38,58.72 8.9,34.46 15.76,78.92 14.77,115.83 0.14,30.83 -4.59,51.16 -8.86,62.32 -4.41,11.15 -8.51,13.11 -10.98,9.67 -5.58,-7.2 -7.71,-35.89 -16.74,-70.02 0.19,3.76 -8.05,-37.9 -23.61,-78.07 -14.62,-41.03 -35.24,-80.41 -35.24,-80.08 0,0 -7.39,-17.53 -22,-45.1 -27.4,-51.19 -77.11,-129.09 -155.81,-188.14 -78.45,-63.53 -164.24,-127.47 -228.88,-175.74l-87.94 -64.46z"/>
  <path class="fil0" d="M3522.21 3025.4c26.74,-47.71 44.63,-78.6 69.89,-135.18 5.06,-11.63 14.72,-31.99 27.69,-56.92 22,-41.8 51.99,-90.53 87.29,-138.29 35.24,-47.71 76.13,-94.64 114.98,-134.16 39.4,-39.71 76.92,-72.53 104.7,-94.85l19.16 -15.07 12.45 -9.87 0.52 0c-0.14,0 0.19,-0.45 0.33,0.19l2.95 27.4c1.13,13.43 2.49,28.55 3.59,44.78 1.83,32.63 3.45,69.38 2.46,108.44 -0.33,19.52 -1.48,39.37 -3.23,59.18 -0.71,9.71 -1.83,19.71 -2.98,29.72l-1.32 9.15c0.14,0.83 -0.19,0.83 0,0l-0.82 -0.79c-13.63,-40.87 -27.72,-73.32 -34.95,-89.41 -27.36,-58.74 -52.34,-87.74 -92.19,-124.81 18.03,51.47 28.87,85.28 54.62,141.73 6.57,15.39 20.2,46.74 33.3,85.78 4.6,13.59 9.85,30.33 14.48,46.55 5.39,18.42 10.12,41.86 15.57,67.31l8.18 38.35c1.48,-2.27 2.79,-7.52 4.07,-10.32l2.33 -8.83c10.64,-34.46 20.85,-59.57 29.37,-98.44 2.13,-9.67 3.61,-19.52 5.44,-29.52l3.23 -21.49c1.18,-10.51 1.97,-20.83 3.11,-31.52 2.14,-20.98 2.66,-41.68 3.31,-61.8 0.98,-40.37 -0.65,-78.45 -2.98,-111.74 -0.96,-16.89 -2.14,-32.45 -3.58,-46.41l-1.81 -20.18 -3.77 -26.93 -5.12 -34.78c-1.1,-4.74 -1.1,-10.33 -2.14,-13.12l-10.32 6.57 -18.03 12c0.33,0 -8.84,5.58 -25.26,17.72l-16.23 12.45 -19.54 15.45c-29.06,23.44 -67.75,56.92 -108.31,98.06 -40.49,40.69 -82.15,88.91 -118.75,138.3 -36.86,49.53 -68.06,100.57 -91.04,144.01 -13.57,25.76 -23.1,46.91 -28.48,59.24 -25.78,59.38 -31.03,97.44 -32.18,152.07z"/>
  <path class="fil0" d="M3986.33 2972.3c-1.5,0.17 -1.69,0.31 -3.5,-0.33 -12.45,-3.58 -30.32,-16.89 -11.95,-42.46 0.33,-0.52 2.13,-2.33 3.12,-2.65 1.5,-0.51 31.03,-7.72 71.86,-23.3 49.55,-19.19 100.69,-45.74 147.29,-82.68 23.62,-18.55 45.29,-39.37 64.97,-62.81 9.85,-12.14 19.21,-24.6 27.06,-37.71l6.1 -9.71 0.96 -2.29 -2.46 -3.76c-79.74,-104.66 -184.87,-199.3 -300.54,-276.08 -58.07,-38.56 -118.74,-73 -180.09,-102.72 -30.68,-15.07 -61.84,-28.87 -92.52,-40.83l-9.36 -3.44 0 0.14 -16.09 41.03c-44.6,122.38 -75.79,240.17 -96.78,342.05 -5.09,25.77 -9.85,50.69 -13.79,74.31l-8.51 52.63 -3.11 21.34 -2.65 18.05 -24.08 118.9c-15.24,83.71 -23.95,50.04 -25.94,-3.76 -0.66,2.96 -0.33,-29.2 0.82,-61.65 1.18,-32.34 3.78,-65.95 3.78,-65.95l1.99 -16.59 3.12 -19.67 4.24 -25.77 5.09 -31.99c4.1,-22.14 8.04,-45.43 13.26,-69.38 20.83,-100.91 51.53,-219.34 96.96,-343.5 5.44,-15.58 11.49,-31.33 17.56,-47.1l9.69 -22.46 5.06 -11.61c2,-2.8 2.14,-10.2 6.74,-6.57l23.8 7.86 19.48 7.39c32.5,12.46 64.33,26.42 96.18,41.81 63.13,30.17 125.77,65.28 186.19,104.99 120.38,79.24 230.62,177.49 314.74,287.56 1.83,2.33 7.39,10.64 11.36,15.76l6.21 9.02 3.28 4.61c0.83,1.44 -0.98,3.57 -1.45,5.39 -3.31,7.52 -6.89,15.58 -10.7,22.12l-7.2 12.46c-9.03,15.12 -19.54,29.21 -30.18,42.84 -22.34,26.73 -46.93,50.21 -72.52,70.86 -51.49,41.02 -107.45,70.22 -161.45,90.72 -43.59,16.89 -74.62,24.45 -76.05,24.93z"/>
  <path class="fil0" d="M3901.7 2651.67c2.79,58.22 2.13,106.63 4.59,156.66 2.47,50.18 6.57,102.03 13.11,167.64 1.67,17.9 4.1,44.65 5.12,77.94 0.65,16.23 0.79,34.45 0.79,53.66 0.33,16.22 -1.45,41.81 -1.95,65.1 -0.52,23.96 -0.98,48.73 -0.33,74.16 1.15,101.38 12.97,212.42 39.37,323.33 26.74,111.22 67.37,221.62 116.63,324.29 24.41,51.53 51.14,101.04 78.92,148.48 13.57,23.63 27.53,46.72 41.78,69.25l21.02 33.29 2.46 3.11c0,0.14 0.33,0.33 0.33,0.33l-4.27 5.06c-6.89,8.36 -14.28,16.28 -22.33,23.95 -15.38,15.58 -32.12,30.04 -48.54,43.14 -33.47,26.28 -67.76,47.77 -100.4,65.93 -65.27,35.63 -123.82,56.78 -164.85,70.41 -41.18,13.43 -65.12,19.53 -65.12,19.53 0,-0.52 -57.44,16.7 -155.71,32.13 -98.37,15.9 -238.18,24.6 -396.97,22.14 -158.46,-2.3 -335.12,-17.73 -505.26,-48.36 -84.95,-15.32 -168.8,-34.01 -246.87,-56.31 -35.26,-9.17 -93.51,-28.52 -77.56,-23.26l-1.49 -24.98 -2.66 -26.74 -1.12 -7.86c-9.52,-73.96 -26.4,-131.53 -36.78,-162.73 -12.27,-34.08 -26.04,-63.62 -41.48,-89.56 -3.94,-6.7 -7.7,-12.8 -11.65,-18.83 -1.96,-2.01 -2.62,-1.35 -3.45,-2.98l-0.64 -0.97c-0.16,0 -0.16,-2.46 -0.33,-3.96l-0.79 -8.84 -1.82 -18.36c-3.11,-49.06 -8.88,-96.17 -1.15,-153.86 -34.46,48.21 -51.66,97.92 -63.34,149.26l-3.76 19.35 -1.8 10.17 -0.33 5.58 -0.79 9.35c0.14,5.72 -2.65,12.61 1.63,17.71l7.52 16.09 7.73 17.52c10.01,24.15 20.32,50.37 30.18,80.73 9.21,27.4 24.45,79.06 32.83,145.31l0.79 7.25 2.79 23.94 0.97 15.27 1.03 20.97 0 7.58c0.14,2.43 -0.84,5.19 1.29,7.03l7.39 10.7 12.46 18.17 7.71 10.83c4.11,2.46 9.03,3.77 13.45,5.25l38.36 12.78c19.84,6.24 40.54,12.34 60.72,18.23 81.52,22.6 167.64,42.14 255.24,57.9 175.17,31.33 356.61,47.06 519.69,49.39 162.58,2.79 307.55,-6.24 411.4,-23.15 104.2,-16.06 165.52,-34.94 165.71,-34.48 -0.19,0 25.4,-6.37 69.54,-20.44 43.97,-15 107.46,-37.76 179.95,-77.63 36.09,-19.34 74.48,-43.65 112.85,-73.33 18.75,-15.24 38.09,-31.66 56.45,-50.35 9.2,-9.02 18.04,-18.88 26.93,-29l7.86 -9.54c3.97,-4.94 7.39,-9.87 11.17,-14.92 7.33,-10.01 12.92,-20.18 19.02,-30.52l1.95 -3.43c0.84,-1.02 1.18,-1.68 1.33,-2.13l-1.01 -2.14 -5.07 -7.87 -8.89 -15.43 -9.33 -15.91 -8.51 -12.8 -20.69 -32.16c-13.27,-21.68 -26.89,-43.95 -40.33,-66.78 -26.08,-45.43 -51.5,-92.5 -75.01,-141.73 -46.71,-98.06 -85.08,-202.41 -109.87,-306.57 -25.26,-104.34 -36.09,-208.18 -37.57,-304.15 -1.32,-47.58 1.61,-94.82 2.46,-137.14 0,-21.14 -0.33,-40.36 -0.85,-58.08 -1.61,-35.24 -4.21,-63.8 -6.21,-82.66 -7.09,-69.38 -20,-122.68 -37.27,-171.6 -17.21,-49.02 -38.86,-93.65 -68.38,-144.34z"/>
  <path class="fil0" d="M2244.01 1157.89c3.11,2.29 4.43,2.93 6.88,8.51 8.84,18.05 15.08,45.31 6.24,67.94 -10,22.32 -32.84,39.38 -79.06,46.08 -1.8,0.32 -9.07,0.32 -12.17,-0.66 -3.59,-1.82 -78.22,-53.48 -200.11,-99.74 -34.78,-13.43 -93.19,-31.15 -121.73,-37.72 -75.29,-18.36 -123.04,-21.66 -122.72,-22.12 0,0.14 -50.17,-10.84 -119.92,-16.74 -69.84,-6.57 -159.26,-4.3 -234.09,4.23 -63.15,8.23 -104.82,16.41 -130.39,18.04 -25.3,2.01 -33.99,-2.29 -30.36,-11.44 7.2,-18.08 65.6,-56.26 146.02,-85.32 -9.21,0.5 87.41,-32.98 192.08,-45.12 105.15,-13.96 213.4,-4.4 213.4,-4.4 -0.33,0.63 46.59,4.73 120.11,22.96 31.34,6.89 97.94,26.87 137.79,42.15 138.28,52.03 223.24,111.22 228.03,113.35z"/>
  <path class="fil0" d="M1470.05 1022.07c-47.7,-33.48 -92.03,-57.3 -140.38,-76.63 -48.6,-19.02 -102.07,-33.15 -171.78,-41 -28.69,-3.45 -79.56,-8.37 -142.88,-8.37 -87.1,-0.15 -190.94,9.52 -296.41,37.42 -105.83,27.86 -211.8,74.97 -302.01,135.51 -45.43,30.32 -86.95,62.96 -124.01,97.1 -9.21,8.17 -18.23,17.05 -26.74,25.42l-18.36 18.51 -23.3 24.64c-30.18,32.14 -54.97,63.3 -76.31,91.02l-105.47 145.03 -17.71 23.94 -12.27 17.25 30.17 -16.4 99.05 -54.65c38.73,-21.34 64.65,-35.62 80.72,-42.65l24.46 -11.67c0,0.19 22.64,-10.84 60.49,-25.25 9.53,-3.95 20.03,-7.54 31.53,-11.29l14.29 -5.11 4.73 -1.64 0.84 -0.19 0.33 0c-15.77,-35.89 35.11,80.41 -35.62,-80.53l-0.15 0.33 -1.8 1.16 -2.8 1.3c-13.76,9.03 -27.9,19.02 -43.67,31.19 -42.13,32.65 -92.16,78.73 -137.78,140.07 -46.08,61.06 -87.6,137.64 -111.88,224.09 -24.41,85.66 -30.65,179.49 -20.98,268.4 2.61,21.96 5.91,43.95 9.69,65.62l3.43 15.9 4.28 20.32c4.23,17.58 10.14,38.42 15.38,56.78 11.03,37.57 23.5,70.02 35.44,101.03l36.4 94.49 0.66 1.82 39.06 -114.85c12,-36.41 23.3,-71.65 33.15,-103.97l12.6 -42.65 5.77 -21.15 5.39 -18.75 0.33 -1.76 0 -0.7c19.06,3.16 -164.38,-28.52 -86.9,-15.07l0 0.33 0 0.51 -0.19 1.31 0 4.6 -0.52 8.32c-0.78,73.84 12.97,131.59 39.25,181.45 25.9,48.86 68.53,91.37 125.78,106.3 -42.96,-40.52 -55.43,-84.62 -65.11,-129.09 -8.55,-44.63 -12.97,-94.34 -11.16,-156.01l0.19 -6.42 0.14 -3.11 0 -0.8c77.62,13.26 -105.79,-18.36 -87.09,-15.12l-0.19 0 0.19 0.52 -0.33 2.14 -5.12 17.4 -5.58 20.64 -1.63 4.11 0.19 0 -0.33 1.29c-0.33,-0.15 -0.33,-0.79 -0.33,-0.98l-5.58 -25.75c-3.62,-19.36 -6.55,-38.69 -8.55,-58.36 -8.71,-78.76 -3.26,-160.15 18.05,-234.79 20.83,-74.44 56.59,-141.07 96.95,-194.69 40.37,-54 84.62,-95.14 121.42,-123.69 12.92,-10.18 25.76,-19.2 36.41,-25.58l1.49 -1.02 0.64 -0.64c-71.05,-160.75 -19.85,-44.27 -35.62,-80.23l-0.33 0 -0.14 0 -0.83 0.21 -4.94 1.76 -3.43 1.01 -0.66 0.33 -0.32 0.33 -0.65 0 -1.3 0.47c0.14,-0.14 0.78,-0.79 0.97,-1.13l0.79 -0.64 6.09 -6.08 24.92 -23.3c33.95,-31.15 72.03,-61.2 113.37,-88.4 82.35,-55.29 178.47,-98.31 275.42,-123.69 96.3,-25.62 192.1,-34.45 273.47,-34.33 59.2,-0.12 106.78,4.15 133.5,7.08 65.47,6.55 116.98,12.46 166.71,16.42 49.2,4.27 97.28,6.23 154.97,13.3z"/>
  <path class="fil0" d="M199.84 2178.59c-21.48,54.81 -30.69,105.31 -31.48,158.97 0.33,53.29 8.52,111.7 40.68,179.13 13.26,27.24 39.35,75.47 87.1,124.34 21.99,22.51 50.68,47.24 83.83,68.26 32.98,21.68 68.41,38.23 100.72,51.84 64.79,26.88 117.93,39.99 117.93,40.18 0,0 44.96,13.3 106.3,22.97 61,10.32 139.45,14.41 201.77,8.84 96.16,-7.67 173.4,-37.4 209.66,-55.95 66.78,-33.75 110.54,-78.06 138.96,-124.48 28.86,-47.1 44.12,-97.6 50.02,-155.68 -32.32,48.87 -64.95,82.81 -99.92,114.35 -35.24,30.83 -73.34,59.18 -128.1,86.44 -29.85,14.6 -93.52,39.84 -178.47,46.59 -54.12,4.6 -124.53,1.49 -180.29,-7.54 -55.48,-9.21 -96.62,-21.19 -96.62,-21.02 0,-0.17 -48.74,-12.31 -106.95,-36.6 -29.08,-12.45 -60.36,-27.38 -86.78,-44.9 -27.24,-17.08 -50.68,-37.45 -68.59,-55.31 -38.23,-39.2 -60.35,-78.57 -71.19,-101.04 -26.73,-55.62 -41.85,-102.73 -55.75,-149.12 -12.97,-46.41 -25.62,-92.22 -32.84,-150.28z"/>
  <path class="fil0" d="M999.56 2773.65c-43.29,15.24 -70.02,31.85 -89.55,73.98 -10.52,22.31 -39.2,93.83 -44.31,166.33 -3.26,35.94 -0.48,71.51 4.46,97.28 4.73,25.94 10.78,41.99 10.78,41.99 0,0 4.6,16.28 16.28,40.54 11.29,23.77 31.8,54.65 57.25,81.02 51,54.49 121.86,87.93 144.19,97.65 43.15,17.85 73.81,11.8 116.28,-5.59 -27.24,-36.92 -43.46,-58.58 -79.87,-75.14 -19.67,-8.88 -78.59,-38.09 -116.63,-78.59 -39.39,-39.52 -53.8,-87.75 -53.34,-87.28 -0.33,0.17 -16.55,-47.38 -10.64,-104.16 4.08,-57.42 28.03,-118.95 36.72,-138.94 15.58,-37.07 12.46,-63.34 8.37,-109.09z"/>
  <path class="fil0" d="M1047.78 3272.27c-54.77,20.51 -98.58,50.87 -134.99,91.69 -35.94,41.66 -66.12,97.61 -73.32,174.57 -1.31,15.9 -2.46,37.06 -0.19,63.98 2,27.72 8.88,59.2 21.85,91.69 7.86,23.46 31.3,61.84 31.81,61.67 -0.51,0.17 20.51,32.32 37.4,50.55 33.94,38.22 72.53,65.74 106.48,84.11 33.76,18.57 62.96,28.75 82.81,34.64 72.35,21.17 131.61,18.85 184.42,9.03 52.64,-10.5 99.57,-29.52 150.57,-57.55 -58.21,0.64 -105.97,-2.48 -154.18,-7.4 -48.09,-5.12 -97.15,-11.02 -155.05,-28.55 -31.33,-9.67 -95.46,-33.81 -148.62,-93.33 -12.64,-14.27 -29.2,-38.54 -29.2,-38.54 -0.14,0 -17.54,-29.86 -23.76,-47.11 -9.86,-24.92 -14.8,-47.57 -16.09,-66.59 -1.81,-19.67 -0.98,-37.05 0,-49.07 4.75,-58.86 20.64,-103.5 39.33,-146.32 19.54,-42.32 42.05,-83.81 80.72,-127.46z"/>
  <path class="fil0" d="M2163.43 4257.79c2.93,-0.65 3.94,-1.12 8.69,1.18 16.09,5.74 37.71,17.05 50.5,36.59 14.28,18.5 18.88,48.54 -12.14,89.7 -0.66,1.48 -6.55,7.25 -9.67,8.37 -5.59,1.01 -104.16,32.81 -250.97,31.53 -38.86,-0.19 -91.05,-3.78 -140.61,-11.49 -49.35,-7.72 -95.94,-19.21 -125.99,-28.21 -82.99,-24.8 -131.23,-49.06 -131.4,-48.21 0.64,-0.52 -53.29,-25.78 -115.46,-75.66 -30.69,-24.6 -63.66,-55.89 -91.7,-91 -28.22,-35.12 -52.03,-74.17 -68.08,-111.09 -29.2,-62.19 -34.78,-107.09 -34.31,-132.52 0.65,-26.09 8.55,-32.98 15.76,-27.26 14.62,9.52 40.69,66.27 87.41,122.53 -1.28,-3.25 10.2,12.83 31.54,36.28 21.48,23.15 53.29,52.81 89.37,77.74 35.77,25.3 75.47,45.81 106.17,58.73 30.64,13.43 52.63,20.7 52.63,20.7 -0.14,-0.33 35.77,16.53 97.29,34.76 24.79,7.36 64.31,17.4 107.14,23.64 42.32,7.01 87.74,10.13 121.55,9.99 62.49,0.66 114.81,-6.1 151.92,-12.65 36.55,-7.06 58.04,-13.11 60.36,-13.63z"/>
  <path class="fil0" d="M182.88 1899.39c50.03,-30.37 93.33,-50.69 137.45,-73.66l147.31 -76.94c12.46,-6.38 30.05,-15.26 52.69,-24.74 10.97,-5.12 23.11,-10.06 36.08,-15.25l20.65 -7.91 30.68 -10.51c112.21,-36.87 256.41,-53.47 397.81,-19.15 141.56,32.31 273.81,112.2 376.81,201.77 51.67,44.46 97.46,91.37 136.47,135.18l28.05 32.3 20.7 24.75c2.78,2.96 1.3,1.33 1.3,2.14l-6.74 4.09c-8.51,5.91 -16.89,11.99 -24.1,17.56 -46.26,35.26 -68.25,62.37 -68.59,61.67 0.52,0.33 -17.37,17.39 -42.12,53.85 -24.12,36.4 -56.12,97.22 -56.92,178.14 -0.17,39.99 7.02,81.85 22.27,123.82 15.12,42.32 40.88,85.66 76.96,121.23 35.91,35.77 81.85,63.49 131.09,80.72 6.23,2.29 12.47,4.28 19.01,6.06l17.21 4.93 0.33 0c0,0 -0.14,0 0,0.19l-3.45 19.52c-1.63,9.81 -2.93,20 -3.96,29.98 -0.97,10.01 -1.95,20.05 -2.78,30.04 -11.12,178.97 44.31,354.15 113.37,489.18 42.64,83.79 86.64,146.62 108.76,177.83 40.87,56.59 78.91,96.25 118.1,130.05 39.86,33.48 80.88,61.2 131.75,90.72 -30.83,-49.84 -55.43,-91.37 -82.69,-133.54 -27.24,-42.64 -56.91,-84.76 -95.32,-138.76 -20.51,-29.39 -61.66,-88.91 -101.19,-166.66 -64.31,-125.51 -113.87,-286.26 -103.83,-443.25 0.79,-8.55 1.29,-17.25 2.28,-25.94 0.84,-8.7 1.96,-17.52 3.26,-25.89l2.97 -16.56c2.15,-11.01 4.93,-23.3 8.51,-35.11 0.85,-1.49 0.33,-2.79 -0.64,-3.63l-2.15 -3.77 -4.09 -6.08 -6.23 -9.99 -9.81 -14.75 -14.27 -21.34c-1.02,-3.3 -4.94,-2.27 -7.59,-2.79 -3.25,-0.83 -6.23,-0.97 -9.16,-1.62 -5.91,-0.84 -11.49,-2.14 -17.39,-3.64l-9.34 -2.27 -7.59 -1.99c-4.75,-1.64 -9.67,-3.12 -14.56,-4.88 -38.22,-13.16 -71.7,-34.12 -97.79,-59.9 -26.42,-25.9 -44.78,-56.46 -56.45,-88.58 -11.49,-32.14 -17.4,-64.77 -16.57,-92.86 0.33,-57.39 22.66,-101.38 41.35,-129.92 19.35,-28.36 33.63,-42.46 33.63,-42.46 0,0.14 18.03,-21.2 56.77,-51.37 6.37,-4.42 13.43,-9.67 20.82,-14.61l16.57 -10.79c8.03,-4.79 16.41,-9.71 25.44,-14.27l6.55 -24.46 4.4 -19.86c1.68,-7.86 4.61,-15.58 4.61,-24.27l-22.97 -28.89 -18.04 -22.65 -13.76 -16.36 -29.4 -34.14c-41.48,-46.27 -89.38,-95.78 -144.99,-143.54 -55.62,-47.75 -119.09,-94.16 -188.66,-132.7 -69.88,-39.08 -146.66,-70.04 -225.89,-88.4 -79.06,-18.75 -160.11,-24.65 -236.04,-19.54 -76.31,4.94 -147.18,20.84 -209.35,40.83l-21.95 7.4 -11.67 4.28 -22.78 8.5c-14.46,5.6 -27.9,11.17 -39.9,16.75 -24.1,10.64 -43.62,20.18 -57.39,27.39 -62.83,32.97 -107.13,66.77 -144.7,103 -37.4,36.92 -68.74,75.65 -99.24,126.34z"/>
  <path class="fil0" d="M3296.95 3587.45c-82.67,168.49 -175.67,299.73 -393.71,327.28 -56.39,1.02 -189.13,7.05 -302.81,-91.06 -116.49,-93.79 -180.1,-187.12 -275.23,-328.85 -11.49,-17.52 -23.48,-35.89 -31.34,-52.32 -7.86,-0.83 2.8,-21.02 8.52,-40.03 14.58,-37.06 33,-72.35 52.34,-105.13 39.71,-64.65 85.93,-117.46 132.85,-148.8 91.04,-60.68 180.93,-35.58 178.84,-43.8 -4.27,7.52 90.35,-25.45 174.51,32.17 73.06,70.05 81.79,189.1 194.49,316.84 13.96,15.81 97.08,23.04 51.4,-22.76 -119.6,-128.1 -112.85,-234.71 -212.08,-335.61 -126.67,-78.73 -214.22,-32.13 -210.98,-43.47 4.11,9.66 -85.92,-21.96 -206.17,52.69 -55.59,37.57 -105.97,95.92 -148.28,165.01 -20.83,35.12 -40.37,72.64 -56.6,113.65 -3.61,19.07 -26.08,43.01 -6.74,81.57 10.83,22.26 22.15,40.17 34.6,59.05 99.28,146.98 162.75,241.24 287.1,341.64 126.94,108.58 278.21,104.49 339.87,102.03 253.13,-34.08 339.89,-203.24 389.43,-380.1z"/>
  <path class="fil0" d="M2667.53 2889.9c42.49,64.12 78.26,117.09 118.43,171.91 19.54,27.53 40.88,55.43 63.66,84.96l17.91 22.79 0.33 0.51 0.33 0c-9.21,5.72 81.37,-49.06 42.83,-25.89l0 -0.51 -0.85 -1.32 -0.98 -2.46 -2.14 -4.09 -4.41 -7.71 -9.87 -15.12c-15.11,-18.82 -33.94,-36.21 -57.09,-48.68 -98.91,-80.06 -466.22,14.75 -570.18,302.48 -24.79,67.25 -33.96,137.79 -31.67,201.96l3.3 47.24 3.58 22.8 1.96 11.81 0.17 1.49 0.33 0.33c-10.64,4.73 91.06,-38.89 47.75,-20.71l-0.32 -0.46 -1.67 -2.14 -2.47 -4.27c-14.74,-23.12 -28.7,-45.12 -41.01,-65.31 -50.17,-81.03 -80.03,-134.66 -80.03,-134.66 18.69,-1.17 -170.61,-208.69 -150.3,-470.82 8.89,-130.9 53.99,-266.26 127.65,-353.68 73.46,-85.28 162.42,-132.06 203.05,-155.69 158.65,-79.23 254.79,-116.63 405.39,-140.43 -152.43,-9.98 -263.79,10.83 -430.32,93.71 -43.14,25.11 -135.32,71.19 -219.61,168.8 -82.35,97.75 -129.79,243.94 -139.13,383.54 -19.86,142.51 40.03,277.69 82.35,360.04 42.82,87.28 74.97,140.3 74.63,140.61 0.33,0 30.52,54.46 80.53,136.49 13.31,20.5 26.93,42.63 42,66.4l2.97 4.28 1.63 2.33 0.19 0.64c-42.7,18.36 58.87,-25.11 48.55,-20.69l0 -0.15 -0.19 -1.01 -1.81 -9.67 -3.12 -19.85 -2.6 -42.79c-2.61,-58.26 6.23,-121.88 28.04,-182.09 86.44,-255.44 436.2,-339.27 494.77,-274.32 16.86,8.88 30.49,21.54 41.84,34.46l7.03 10 3.44 4.93 1.02 2.46 0.64 0.97c-38.56,23.3 52.65,-31.29 42.96,-25.89l-0.32 0 -0.19 -0.52 -18.69 -21.5c-25.43,-28.21 -49.06,-53.93 -72.35,-78.38 -46.55,-49.06 -92.49,-94 -147.97,-147.14z"/>
  <path class="fil0" d="M4326.09 2755.23c51.53,71.04 119.6,138.72 172.94,217.95 13.62,21.49 35.43,70.37 43.61,136.3l4.13 51 0.33 27.07 -0.19 13.96 -0.33 6.22 -0.1 0.83 0.1 0.33 0 0.17c-9,4.58 78.1,-37.74 40.83,-20.03l-1.42 -0.98 -3.12 -2.13c-34.12,-22 -70.41,-40.69 -106.94,-58.4 -73.01,-33.46 -150.45,-57.9 -216.56,-45.26 -59.57,13.26 -93.02,38.03 -92.55,37.91 0.85,0.97 -37.9,18.5 -71.18,71.96 -4.43,6.75 -8.18,13.63 -12.47,22.34 20.52,-21.03 -6.05,0.19 -7.39,-1.64l-44.77 22.65 -11.95 6.22 -6.24 2.95 -2.79 1.28 -1.67 1.18 -0.79 0.5c76.78,39.67 21.48,10.64 38.56,19.48l0.14 -0.14 0 -0.33 -4.57 -27.57 -7.88 -57.44c-11,-77.42 -22.66,-158.29 -32.15,-226.69l-3.94 -24.92c-40.04,50.83 2.79,10.33 -0.66,20.51 15.43,-4.09 29.2,-7.91 42.17,-11.49 25.58,-7.06 46.08,-12.45 59.84,-16.74 94.35,-26.93 192.54,-78.81 227.02,-167.07 -63.68,66.46 -139.4,84.72 -241.11,116.38 -13.93,3.64 -34.78,9.17 -59.68,16.11 -12.8,3.43 -26.6,7.2 -41.68,10.95 -14.47,16.57 0.14,-28.36 -38.75,38.56l3.96 25.26c9.33,68.39 21.16,149.43 32.32,226.72l8.05 56.91 3.58 28.05 0.19 0.31 0 0.2c17.19,9.02 -38.22,-19.72 38.53,20l0.98 0 1.48 -0.85 2.93 -1.61 6.1 -3.14 12.15 -5.89 45.09 -22.8c11.93,-9.98 2.46,7.04 31.8,-24.91l8.71 -14.93c25.61,-41.53 56.26,-55.47 55.14,-56.45 -3.75,-5.07 115.67,-72.35 257.53,11.81 34.12,16.73 69.23,34.46 100.4,54.97l2.79 1.8 1.48 0.66c-36.91,17.86 50.54,-24.14 41.54,-19.87l0 -0.18 0.14 -0.47 -0.14 -1.16 0.79 -8.05 0 -15.06 -0.33 -29.72 -4.74 -56.41c-8.56,-72.34 -34.15,-129.77 -50.24,-156 -64.96,-94.16 -118.75,-122.25 -194.23,-170.14l-24.79 -21.07z"/>
  <path class="fil0" d="M2614.05 2252.48c31.47,71.32 51.14,118.56 96.95,195.02 9.17,15.9 25.24,43.8 44.61,79.41 19.33,36.23 42.48,82.68 63.65,130.38l16.23 37.11c9.67,24.09 19.35,48.69 28.55,73.61l13.62 38.93 13.95 41.99 13.58 47.24 3.95 12.8c0.65,0.32 1.18,-0.33 2.32,-0.33l3.92 -0.83c13.8,-2.92 16.42,-3.26 18.88,-3.58l3.26 -0.37c0,0 1.01,0.37 1.34,-0.47 0.79,-0.33 1.63,-0.66 6.37,-2.28l11.68 -2.97 5.25 -1.63 3.26 -0.99c0.33,-0.33 0.97,0.15 1.3,-0.83l-2.1 -12.14c-6.08,-33.28 -8.88,-54.77 -11.48,-75.6 -4.46,-42.49 -5.77,-75.65 -5.45,-108.31 0.18,-8.17 0.51,-15.89 0.99,-23.94l0.97 -12.14c1.01,-7.2 1.34,-14.73 2.79,-21.99 4.46,-28.52 12.31,-55.25 24.12,-72.5l1.32 -1.8 2.77 -1.32c6.24,-2.45 12.33,-4.91 18.24,-7.39 11.49,-4.23 22.97,-7.67 32.79,-10.64 20.81,-5.91 37.87,-8.84 49.04,-10.51 41.34,-5.72 73.34,-6.24 104.8,-4.42 31.03,2.28 61.71,6.89 98.14,21.35 -24.93,-29.72 -54.13,-50.55 -88.58,-63.53 -34.29,-12.78 -74.19,-18.18 -122.4,-11.81 -13.25,1.82 -32.96,5.12 -56.91,11.49 -11.61,3.63 -24.41,7.58 -37.88,12.45 -6.89,2.98 -13.96,5.44 -20.98,8.89 -2.65,0.98 -10.51,4.6 -16.6,8.03 -2.46,2.29 -4.88,5.58 -7.21,8.05 -2.26,3.25 -4.42,6.04 -5.4,7.54 -19.83,29.52 -28.86,63.8 -34.12,97.6 -1.3,8.51 -2.28,16.87 -3.3,25.24l-0.47 12 0.14 0.33 0.19 2.46c0.14,0.79 0.14,0.64 0.14,0.64l-0.66 -2.46 -0.33 -0.64 -16.04 -36.59c-21.67,-49.21 -45.28,-96.63 -65.33,-134.34 -19.81,-36.09 -36.41,-65.29 -46.23,-81.18 -47.75,-78.28 -85.98,-116.67 -147.64,-165.03z"/>
  <path class="fil0" d="M3740.47 3407.51c22.66,1.81 41.68,0.07 58.23,16.16 4.6,4.75 13.3,13.96 23.81,25.26l15.38 21.15 7.41 13.63c-13.46,-4.61 36.39,21.81 -29.22,-4.61l3.77 -3.58c22.66,-19.52 37.44,-41.51 36.29,-41.51 -0.85,0.83 24.6,-25.77 13.92,-41.49 -10.83,-15.76 -44.63,-36.78 -51.01,-37.11 -13.11,-4.23 -66.96,4.6 -88.11,-4.88 14.92,-16.27 65.62,-20.69 96,-13.81 15.24,4.6 44.11,0.2 72.02,38.08 23.1,48.56 -10.02,82.03 -6.1,80.22 0.85,1.49 -18.36,29.98 -45.56,53.29l-5.26 4.79c-69.88,-22.33 -19.53,-5.76 -35.62,-12l-4.6 -8.05 -12.61 -16.73c-8.86,-10.01 -10.64,-27.51 -14.58,-31.6 -14.56,-14.92 -35.03,-15.89 -40.28,-38.52l6.12 1.31z"/>
  <path class="fil0" d="M3258.64 3657.57c15.43,25.26 39.18,85.61 108.58,126.96 75.14,34.31 164.9,18.55 244.44,0 40.37,-10.33 78.59,-22.27 113.18,-35.24 41.54,-10.33 64.97,-50.37 75.28,-76.64 21.02,-57.06 21.34,-95.28 22.66,-95.14 -8.51,-1.45 23.94,-34.27 -13.96,-99.88 -33.93,-49.06 -95.61,-103.85 -170.94,-140.43 -74.62,-35.77 -159.92,-62.83 -236.87,-56.78 -75.28,6.92 -131.22,33.15 -158.93,44.82 -99.61,49.86 -147.52,93.66 -209.02,161.07 74.63,-53.47 126.16,-87.1 221.6,-134.52 26.3,-10.98 79.58,-35.77 148.81,-41.99 67.75,-5.77 150.09,19.52 221.49,53.8 70.68,34.77 128.75,85.78 159.77,131.09 27.53,30.82 2.46,84.81 8.84,79.05 -0.98,-0.15 -1.64,37.24 -21.15,87.92 -11.17,57.9 -89.56,71.06 -167.96,94.18 -75.99,18.88 -164.57,30.49 -223.29,2.77 -56.75,-33.29 -83.02,-90.53 -96.46,-114.32 -91.64,-179.67 -152.23,-232.13 -26.08,13.28z"/>
  <path class="fil0" d="M2259.54 3617.91c0,0 -77.29,159.14 -129.79,275.94 -51.99,116.76 -76.77,190.92 -76.77,190.92l160.29 21.69 12.64 -29.72 -92.2 -63.02c0,0 48.72,-137.78 73.01,-212.07 24.27,-74.32 52.82,-183.74 52.82,-183.74z"/>
  <path class="fil0" d="M2214.38 4108.53l-1.15 0 -162.57 -22.14 0.83 -2.32c0.33,-0.65 24.92,-75.6 76.59,-191.26 51.51,-115.33 128.8,-274.26 129.6,-275.76l3.62 1.17c-0.19,1.45 -28.88,110.54 -52.82,184.05 -22.47,69.19 -66.92,195.99 -72.37,210.78l92.22 63.15 -13.96 32.32zm-158.29 -25.25l0 0 155.82 21.3 11.82 -27.2 -92.03 -63.14 0.33 -1.17c0.97,-1.49 48.86,-138.8 73.15,-212.14 17.7,-55.1 38.54,-130.07 47.55,-164.84 -21.95,44.78 -79.89,165.55 -121.36,258.36 -46.78,104.66 -71.2,175.71 -75.29,188.84z"/>
  <path class="fil1" d="M3724.27 2243.55c0,0 169.11,45.69 376.47,211.53 207.37,165.86 257.39,258.82 257.39,258.82l-42.91 37.88c0,0 -163.64,-299.07 -610.11,-469.48l-3.28 -20.96 22.44 -17.79z"/>
  <path class="fil1" d="M3724.27 2243.55l-46.85 30.31c0,0 -103.55,248.41 -146.45,557.24 0,0 -11.66,-98.48 -148.49,-245.39 -68.63,-73.77 -198.94,-165.48 -315.12,-251.62l-121.26 -17.7 31.51 35.74c0,0 488.99,241.63 556.2,692 0,0 116.24,-648.21 189.25,-754.81l7.88 -16.75 -6.67 -29.02z"/>
  <path class="fil1" d="M3533.81 3044.13c0,0 139.17,-385.33 463.49,-610.87l-6.13 -21.16 -31.09 -3.14c0,0 -244.63,157.66 -395.52,467.91l-9.68 55.1 -21.07 112.15z"/>
  <path class="fil1" d="M4019.03 2430l-58.94 -21.03c22.88,89.14 24.63,210.95 5.53,364.95l11.49 94.34c41.22,-66.5 50.35,-226.85 41.92,-438.25z"/>
  <path class="fil1" d="M3272.16 2556.55c-88.39,-33.86 -184.66,-20.48 -284.52,14.31 -27.68,58.09 -31.9,164.94 -10.02,325.98l-57.18 17.16c-70.82,-283.21 -230.08,-507.45 -269.42,-622.92l44.93 16.7c85.48,109.51 153.29,230.76 204.46,363.15 7.23,-58.41 22.28,-107.44 48.66,-142.98 84.43,-41.88 166.68,-52.95 247.3,-41.45l75.8 70.05z"/>
  <path class="fil1" d="M2414.81 844.84l-20.52 -28.94 -27.36 11.77c0,0 -237.9,313.52 -84.88,749.61 -8.92,-135.19 -29.66,-573.82 132.77,-732.43z"/>
  <path class="fil1" d="M2940.91 383.87c69.93,-187.8 162.19,-333.35 304.6,-383.87 98.68,37.35 188.99,209.76 193.22,400.28 -15.81,-1.98 -31.35,-4.96 -46.63,-8.68 3.15,-138.76 -41.88,-285.52 -152.27,-346.59 -132.01,67.75 -189.84,180.83 -228.47,305.6 -41.49,16.74 -70.44,33.25 -70.44,33.25zm449.97 7.43c-10.64,-2.62 -21.18,-5.62 -31.56,-8.88 10.37,3.25 20.86,6.19 31.56,8.88zm-36.83 -10.56c-6.53,-2.12 -13,-4.35 -19.42,-6.67 9.41,-89.72 7.8,-202.13 -71.93,-286.85 -69.05,53.9 -91.63,135.99 -96.64,228.72l1.85 0.05c-9.4,-0.27 -18.98,0.07 -28.61,0.93 -3.29,-80.22 19.55,-165.26 114.43,-263.52 117.36,84.52 122.6,227.83 100.33,327.34l0 0.01zm-125.72 -51.88c-1.48,-0.68 -2.98,-1.32 -4.48,-1.94 1.51,0.62 3,1.26 4.48,1.94zm136.63 171.21l-442.6 34.66 17.4 -141.42 -2.4 19.63 20.03 101.07 30.75 1.44c168.35,-27.49 294.82,-24.42 376.83,-15.37z"/>
  <path class="fil1" d="M3253.71 53.39c-94.88,98.26 -117.71,183.3 -114.43,263.52 9.01,-0.79 17.95,-1.14 26.76,-0.96 5.01,-92.74 27.59,-174.84 96.64,-228.74 79.73,84.72 81.34,197.13 71.93,286.85 6.42,2.32 12.89,4.55 19.42,6.67 22.27,-99.51 17.04,-242.82 -100.33,-327.34z"/>
  <path class="fil1" d="M2940.91 383.87c0,0 123.01,-201.59 326.05,-105.78 203.05,95.78 280.93,86.5 375.33,-2.86 0,0 100.1,252.36 -187.99,281.69 0,0 -295.97,-56.48 -426.87,-11.45l-105.07 -10.74 18.55 -150.86c0,0 181.51,-103.58 287.42,-55.01 105.95,48.54 232.37,107.94 373.19,50.76 0,0 7.17,75.76 -125.11,141.54 0,0 -168.73,-57.9 -488.28,-5.72l-30.75 -1.44 -20.03 -101.07 3.56 -29.06z"/>
  <path class="fil1" d="M2970.99 502.54l-31.84 -104.13c0,0 -6.79,-275.46 -170.48,-342.67 0,0 -19.65,-44.14 -45.59,-18.42 -25.89,25.75 -349,308.51 -356.17,790.34l47.89 17.17c0,0 -15.05,-457.54 330.28,-757.07 0,0 150.83,-2.87 165.12,436.08l31.85 0.36 28.94 -21.65z"/>
  <path class="fil1" d="M2693.26 600.68c0,0 -128.67,-250.91 69.34,-499 0,0 109.41,130.83 29.33,466.83 0,0 115.15,-155.04 17.35,-443.37 0,0 -15.93,-42.39 -42.36,-51.68 -26.43,-9.3 -56.2,45.72 -56.2,45.72 0,0 -189.74,265.18 -17.46,481.51z"/>
  <path class="fil1" d="M2468.44 825.18c0,0 51.67,-165.84 441.77,-301.35 17.9,-6.2 40.83,-17.19 60.13,-23.22 230.89,-58.51 402.64,-36.01 543.01,-0.18 15.76,4.04 25.83,26.97 41.37,31.8 284.75,88.11 516.31,306.03 523.69,648.99 0,0 7.17,170.14 -55.71,253.08l-11.33 1.06c-22.99,2.18 65.73,-62.66 47.23,-247.21 -84.55,-260.73 -189.74,-608.36 -747.76,-640.2 -481.86,-27.48 -653.43,185.6 -842.41,277.23z"/>
  <path class="fil1" d="M4005.74 1034.23c0,0 -83.68,-41.76 -130.86,26.89l-15 17.87c0,0 3.73,-96.67 128.72,-86.95l27.09 14.05 -9.96 28.14z"/>
  <path class="fil1" d="M3863.38 1430.36c0,0 -43.94,-65.77 -164.73,0.72 -120.84,66.5 -163.36,106.87 -181.97,103.3 14.39,-43.99 180.93,-220.62 340.69,-163.73l47.01 59.39 1.59 5.32c0,0 -16.31,-5.35 -42.58,-5z"/>
  <path class="fil1" d="M3861.64 1126.9c0,0 31.47,-70.8 89.37,-60.78 57.9,10 142.29,139.42 41.43,376.07l-10.06 -0.83c69.96,-194.66 29.07,-339.2 -24.21,-348.41 -52.42,-9.05 -90.83,64.22 -92.02,66.52l-4.52 -32.57zm60.26 39.66c-17.29,0 -31.25,19.87 -31.25,44.33 0,24.49 13.96,44.33 31.25,44.33 17.24,0 31.26,-19.84 31.26,-44.33 0,-24.46 -14.01,-44.33 -31.26,-44.33z"/>
  <path class="fil1" d="M3921.89 1166.56c-17.29,0 -31.25,19.87 -31.25,44.33 0,24.49 13.96,44.33 31.25,44.33 17.24,0 31.26,-19.84 31.26,-44.33 0,-24.46 -14.01,-44.33 -31.26,-44.33z"/>
  <path class="fil1" d="M3874.88 1430.02c-60.36,-186.83 -100.86,-468.9 59.33,-692.74 11.45,12.38 22.88,24.76 34.32,37.16 -109.95,107.87 -115.2,336.87 -64.15,655.6 -1.42,9.75 -27.97,-9.79 -29.5,-0.02z"/>
  <path class="fil1" d="M3584.82 1572.95c6.9,-41.47 93.86,-130.7 219.46,-139.42 19.48,-1.33 22.33,23.57 4.33,26.47 -70.22,11.31 -126.26,30.6 -223.79,112.96z"/>
  <path class="fil1" d="M3437.16 620.69c243.98,86.91 401.21,391.46 338.88,714.9 -4.77,-24.28 -9.52,-48.59 -14.34,-72.89 9.69,-240.35 -56.26,-446.03 -271.66,-583.38 -17.57,-19.54 -35.25,-39.08 -52.87,-58.63z"/>
  <path class="fil1" d="M3614.48 1379.92c-29.88,-560.66 -247.21,-750.99 -561.62,-693.44 -228.15,41.74 -481.48,262.4 -282,773.53 13.41,34.26 -28.9,50.99 -40.49,26.66 -125.88,-263.83 -162.98,-673.28 242.32,-827.78 221.92,-84.57 412.91,-3.38 527.51,133.31 134.69,160.65 172.73,522.75 114.28,587.72z"/>
  <path class="fil1" d="M2741.59 1497.03c-45.48,-19.17 -100.86,-145.62 -164.84,-192.88 -42.3,-11.85 55.27,168.26 47.23,193.74 -75.91,-49.91 -149.57,-157.31 -205.23,-142.25 -35.47,15.6 79.85,123.78 99.39,170.12 -48.77,-16.2 -84.34,-109.76 -227.33,-80.76 85.04,7.08 134.67,31.29 158.76,67.9 -118.04,-2.65 -218.36,14 -255.25,100.08 111.53,-62.14 187.99,-71.03 242.33,-46.47 -109.23,-1.23 -196.96,36.04 -273.8,92.94 18.61,-95.47 74.16,-167.28 249.23,-162.58 -97.4,-46.12 -165.87,-35.56 -221.37,0.32 -3.83,-6.2 -7.6,-12.4 -11.38,-18.61 100.81,-66.84 179.88,-65.67 250.21,-37.17 -99.27,-138.51 29.06,-146.02 160.08,5.73 -109.41,-275.16 42.53,-165.63 151.98,49.9z"/>
  <path class="fil1" d="M4111.04 1436.1c-1.26,-25.76 34.2,-76.84 112.35,-123.39 13.96,-8.29 27.7,14.24 18.44,21.14 -39.67,29.62 -86.63,65.22 -130.8,102.24z"/>
  <path class="fil1" d="M4298.31 1408.32c20.3,-0.44 22.99,28.65 2.84,29.2 -53.91,1.46 -109.02,-3.2 -164.4,0 39.4,-40.73 74.49,-27.22 161.56,-29.2z"/>
  <path class="fil1" d="M3337.89 1460.77l-33.17 2.24c55.08,-120.81 80.26,-352.22 -102.66,-368.27 -177.32,-15.56 -241.23,271.68 -113.84,382.21l10.51 -0.03 -46.9 3.17c-87.71,-200.35 -105.28,-427.49 115.42,-449.84 233.09,-23.61 236.37,267.53 170.65,430.53zm-202.39 -308.85c-24.9,0 -44.99,23.35 -44.99,52.19 0,28.82 20.09,52.18 44.99,52.18 24.85,0 45.04,-23.35 45.04,-52.18 0,-28.83 -20.2,-52.19 -45.04,-52.19z"/>
  <path class="fil1" d="M3135.5 1151.93c-24.9,0 -44.99,23.35 -44.99,52.19 0,28.82 20.09,52.18 44.99,52.18 24.85,0 45.04,-23.35 45.04,-52.18 0,-28.83 -20.2,-52.19 -45.04,-52.19z"/>
  <path class="fil1" d="M2855.97 1557.99c12.31,-12.71 50.73,-119.6 481.91,-97.22 19.81,1.01 37.38,30.87 3.5,41.45 0,0 -280.1,-22.8 -485.42,55.77z"/>
  <path class="fil1" d="M3365.36 1459.31c139.83,-155.01 7.99,-624.41 -228,-567 -199.3,48.5 -245.71,349.58 -89.47,595.61 -14.28,4.28 -28.57,8.58 -42.91,12.87 -179.17,-254.65 -107.42,-630.72 121.6,-653.08 289.13,-28.2 405.43,527.46 238.78,611.61z"/>
  <path class="fil1" d="M4179.77 1600.37c0,0 60.03,257.39 -344.57,338.89 0,0 55.77,-67.21 71.48,-158.72 0,0 -121.77,194.41 -356.07,176.54 -234.46,-17.82 -357.43,-299.51 -357.43,-299.51 0,0 41.49,-31.47 65.78,-35.74 0,0 22.88,-38.98 32.89,-42.91 0,0 -43.95,-26.11 -94.74,6.08 -50.73,32.18 -178.73,102.24 -271.65,260.97l-2.19 54.67c0,0 29.72,0.36 65.44,-48.97 35.74,-49.34 117.28,-144.41 165.88,-168.73 0,0 41.48,65.08 72.19,93.66 30.76,28.61 98.68,99.39 122.27,143.7 23.58,44.33 93.64,224.47 188.04,261.66 94.35,37.2 175.13,4.3 265.92,-74.35 90.8,-78.64 184.44,-151.57 282.4,-225.21 97.97,-73.64 176.61,-165.84 94.35,-282.05zm-705.56 493.68c0,0 -18.6,-30.75 17.79,-23.59 36.51,7.15 91.56,40.02 136.59,35.01 45.04,-5 103.66,-2.13 79.3,27.17 -24.24,29.33 -75.74,37.89 -107.21,36.47 -31.41,-1.42 -87.18,8.58 -126.48,-75.06zm463.93 -137.98c0,0 -72.02,25.45 -119.41,-12.14 0,0 -189.47,152.26 -408.93,2.14 0,0 22.17,85.08 42.26,107.23 0,0 47.89,-1.44 81.43,9.3 33.66,10.72 40.06,19.99 96.55,16.43 56.47,-3.57 93.64,10.72 103.66,34.33 78.75,-48.44 140.32,-89.89 204.46,-157.29z"/>
  <path class="fil1" d="M3669.32 1559.41c176.56,-110.81 186.08,-137.97 353.38,-125.11 167.25,12.88 117.06,260.93 -73.11,338.16 -87.25,-41.48 -130.15,-38.59 -280.27,-213.05zm391.09 53.61c48.93,-180.93 -65.29,-182.08 -251.64,-103.66 140.05,-18.06 231.66,9.26 251.64,103.66z"/>
  <path class="fil1" d="M4122.58 1463.49c233.97,-35.86 281.14,157.49 176.88,381.36 -83.57,179.43 -258.64,293.07 -408.16,334.95 8.38,-13.52 27.47,-32.91 92.66,-65.74 128.39,-64.84 244.52,-174.12 295.48,-295.5 82.03,-195.41 73.77,-312.17 -156.86,-355.07z"/>
  <path class="fil1" d="M2481.41 1554.35c0,0 -400.98,206.55 -159.3,455.33 241.62,248.8 446.08,274.55 892.21,263.1 -55.77,84.37 -532.22,140.56 -820.74,-88.64 -423.86,-336.7 -164.12,-629 87.84,-629.79z"/>
  <path class="fil1" d="M3829.13 2174.14c0,0 -70.71,53.91 -174.2,64.08 -103.5,10.14 -151.82,-36.92 -257.66,-45.5 35.74,31.45 131.57,93.64 218.09,87.92 86.47,-5.7 175.13,-22.14 213.77,-106.5z"/>
  <path class="fil1" d="M3586.35 1999.48c0,0 12.23,106.72 74.95,111.59 62.73,4.88 108.06,8.25 132.81,-13.24 18.55,-16.13 83.65,-103.29 97.19,-146.52 0,0 -51.61,4.19 -73.61,-17.82 -21.97,-21.99 -169.41,65.17 -231.34,65.99zm27.42 7.7c0,0 12.18,77.28 38.64,83.66 26.43,6.34 73.25,4.9 73.25,4.9 0,0 36.62,-44.65 51.45,-94.39 0,0 2.16,37.97 -28.82,92.49 0,0 22.83,-1.25 42.91,-23.48 20.14,-22.23 69.89,-105.52 69.89,-105.52 0,0 -60.56,5.54 -67.18,-13.53 0,0 -103.24,72.3 -180.14,55.88z"/>
  <g id="_2176531600016">
   <path class="fil0" d="M4319.58 3369.83c0,0 2.52,11.81 16.06,69.36 11.57,49.24 33.63,83.79 41.95,109.26 4.19,12.8 -17.73,7.38 -21.64,3.35 -5.85,-6 -11.54,-12.97 -17.1,-20.52 -17.43,-23.78 -28.13,-78.17 -27.8,-110.15 0.14,-16.12 8.54,-51.3 8.54,-51.3z"/>
   <path class="fil0" d="M3447.24 3553.51c0,0 55.43,6.89 84.44,58.59 71.39,127.28 6.24,158.29 6.24,158.29 0,0 54.64,3.44 47.75,-76.63 -4.6,-49.84 -27.25,-97.41 -55.08,-112.86 -60.88,-33.75 -83.35,-27.38 -83.35,-27.38z"/>
   <path class="fil0" d="M3596.37 3524.77c0,0 55.77,6.89 84.83,58.4 71.18,127.46 5.72,158.44 5.72,158.44 0,0 54.95,3.3 48.08,-76.78 -4.76,-49.65 -27.39,-97.09 -55.3,-112.65 -61,-33.63 -83.33,-27.4 -83.33,-27.4z"/>
   <path class="fil0" d="M4482.58 3347.45c0,0 0.25,13.39 2.33,72.47 1.78,50.57 -9.98,88.35 -11.3,115.11 -0.66,13.46 19.05,2.45 21.76,-2.45 4.07,-7.35 7.74,-15.56 11.11,-24.31 10.56,-27.53 6.56,-82.82 -2.16,-113.59 -4.38,-15.5 -21.73,-47.23 -21.73,-47.23z"/>
  </g>
  <path class="fil1" d="M3645.46 3343.95c0,0 56.04,9.71 112.3,-6.27l6.79 10.72 -4.96 6.66c0,0 -55.03,13.53 -87.86,6.53 -32.84,-7.01 -26.27,-17.64 -26.27,-17.64z"/>
  <path class="fil0" d="M4080.5 3267.63c38.53,-54.59 68.25,-91.52 134.19,-127.13 32.46,-30.65 165.51,-22.28 260.35,52.34 47.59,33.77 86.25,74.97 110.22,108.08 25.43,15.94 5.26,60.54 11,55.29 -0.36,-0.14 -1.34,26.59 -9.2,66.77 -10.83,42.51 -20.49,90.91 -86.44,103.19 -109.1,48.55 -245.43,50.22 -264.59,7.21 -51.2,-53.49 -68.47,-99.06 -101.25,-157.79 15.76,65.1 21.48,115.33 81.18,179.11 32.65,55.62 185.89,48.08 295.16,-0.64 25.39,-9.03 62.5,-21.49 78.53,-51.66 14.77,-26.4 20.82,-52.03 26.1,-73.32 8.35,-43.02 9.33,-70.87 9.67,-70.87 -7.99,-1.17 21.02,-24.79 -16.37,-74.83 -25.77,-35.11 -66.43,-78.71 -116.49,-114.8 -98.12,-79.1 -250.62,-90.73 -290.85,-54.5 -76.27,41.86 -98.92,90.6 -121.23,153.56z"/>
 </g>
</svg>
