<?xml version="1.0" standalone="no"?>
<!DOCTYPE svg PUBLIC "-//W3C//DTD SVG 20010904//EN"
 "http://www.w3.org/TR/2001/REC-SVG-20010904/DTD/svg10.dtd">
<svg version="1.0" xmlns="http://www.w3.org/2000/svg"
 width="225.000000pt" height="225.000000pt" viewBox="0 0 225.000000 225.000000"
 preserveAspectRatio="xMidYMid meet">

<g transform="translate(0.000000,225.000000) scale(0.100000,-0.100000)"
fill="#fffff" stroke="none">
<path d="M995 2169 c-658 -84 -1079 -756 -869 -1384 54 -161 142 -301 266
-421 141 -137 290 -222 476 -271 86 -23 116 -26 262 -26 145 0 176 3 260 25
334 90 601 326 724 641 53 133 70 230 69 392 0 216 -50 389 -161 560 -113 174
-243 290 -425 380 -197 96 -393 130 -602 104z m5 -77 c32 -26 39 -100 12 -128
l-20 -21 29 -17 c19 -11 29 -25 29 -42 0 -36 -25 -31 -104 21 l-69 45 7 -30
c3 -16 9 -43 12 -59 5 -24 2 -30 -16 -36 -12 -4 -24 -4 -27 -1 -7 6 -65 248
-61 252 2 1 28 9 58 17 76 21 123 20 150 -1z m374 5 c13 -9 21 -42 32 -130 17
-128 15 -147 -15 -147 -20 0 -31 18 -31 50 0 14 -12 21 -51 29 -45 10 -53 9
-65 -6 -7 -10 -14 -21 -14 -25 0 -14 -41 -8 -46 7 -6 14 108 212 130 227 17
11 40 9 60 -5z m330 -222 c28 -130 22 -125 71 -71 30 32 48 44 60 40 9 -4 15
-15 13 -25 -4 -24 -150 -201 -158 -192 -4 5 -15 57 -25 116 l-18 108 -31 -38
c-50 -61 -65 -73 -81 -67 -9 4 -15 15 -13 25 4 25 150 201 159 192 4 -5 14
-44 23 -88z m-1086 41 c5 -22 -13 -36 -48 -36 -37 -1 -73 -36 -73 -70 0 -88
110 -123 152 -48 19 33 8 47 -17 25 -24 -22 -51 -22 -59 -1 -9 24 87 107 105
91 78 -64 24 -200 -85 -213 -109 -14 -193 120 -133 210 38 59 150 89 158 42z
m687 -121 c232 -60 424 -247 493 -480 25 -84 33 -235 18 -321 l-7 -41 82 -34
c45 -18 84 -39 86 -46 9 -22 -42 -228 -55 -226 -7 2 -12 -2 -12 -7 0 -6 -5
-10 -11 -10 -5 0 -7 4 -4 10 3 5 2 10 -3 10 -5 0 -12 -10 -15 -21 -5 -18 -11
-21 -38 -15 -32 6 -32 6 -11 -11 11 -10 34 -26 51 -35 43 -23 41 -54 -4 -75
-19 -9 -35 -22 -35 -29 0 -18 -21 -29 -29 -15 -6 8 -26 3 -72 -19 -35 -16 -69
-30 -76 -30 -6 0 -17 -14 -25 -30 -16 -37 -33 -33 -33 8 0 29 -5 33 -90 71
l-90 41 -80 -26 c-356 -116 -736 73 -867 430 -24 65 -31 103 -35 191 -6 131
10 222 58 326 34 73 45 84 29 29 -11 -39 7 -131 21 -108 6 9 9 2 9 -19 0 -50
44 -94 101 -100 44 -5 45 -5 41 -39 -2 -19 1 -41 8 -48 9 -12 8 -20 -5 -40
-14 -21 -15 -29 -3 -53 7 -15 28 -34 46 -42 17 -8 32 -20 32 -26 0 -6 13 -24
30 -40 25 -24 41 -30 90 -33 60 -4 60 -5 60 -36 0 -18 9 -49 20 -71 22 -43 21
-46 -30 -65 -47 -18 -60 -29 -60 -51 0 -15 7 -19 31 -19 37 0 190 38 203 50 5
5 10 24 11 44 1 20 13 50 29 70 28 37 27 48 -1 21 -14 -14 -17 -14 -29 2 -21
28 -17 33 24 34 28 1 20 4 -36 14 -109 20 -109 20 -116 68 -7 39 -8 41 -21 23
-8 -11 -21 -16 -30 -13 -8 4 -15 2 -15 -3 0 -6 7 -10 15 -10 23 0 18 -19 -10
-32 -33 -15 -106 6 -137 39 -19 20 -20 25 -8 33 11 7 6 10 -17 10 -34 0 -73
29 -73 54 0 29 13 46 33 46 21 0 21 0 -1 20 -31 29 -29 75 3 96 14 9 31 26 37
38 10 20 10 20 -8 4 -35 -31 -72 -39 -119 -27 -55 14 -73 33 -84 95 -5 27 -13
58 -17 68 -5 14 -4 17 5 12 6 -4 22 -1 35 7 68 45 143 40 209 -14 l37 -31 -20
-25 c-27 -34 -25 -66 5 -94 13 -13 25 -35 25 -49 0 -40 44 -122 83 -156 33
-29 37 -30 42 -13 9 26 16 24 54 -16 30 -32 38 -36 81 -34 40 2 48 6 47 21 -1
10 -5 18 -9 18 -4 0 -8 7 -8 15 0 8 7 15 15 15 8 0 15 -8 15 -17 0 -9 3 -13 7
-10 3 4 12 2 19 -4 20 -16 92 -1 104 22 6 10 17 16 25 13 11 -5 15 1 15 23 0
48 20 57 40 20 15 -26 23 -31 47 -29 16 1 42 -4 57 -12 l28 -14 -42 -7 c-31
-5 -40 -11 -36 -22 3 -8 6 -19 6 -24 0 -5 7 -9 16 -9 14 0 14 -3 4 -15 -14
-17 -7 -19 20 -5 17 9 19 7 16 -27 -3 -45 8 -63 35 -56 15 4 17 8 8 20 -9 10
-14 11 -20 2 -4 -7 -6 -1 -6 14 1 14 5 23 10 20 4 -2 7 0 7 6 0 5 10 8 21 6
28 -6 30 -8 13 -23 -8 -7 -14 -8 -14 -2 0 5 -5 10 -10 10 -7 0 -7 -7 0 -21 11
-20 12 -20 31 -3 18 16 19 16 13 1 -3 -9 -10 -17 -14 -17 -5 0 -7 -14 -6 -32
2 -31 27 -51 52 -41 7 2 15 0 19 -6 13 -21 61 -12 75 14 7 13 17 22 22 19 15
-9 8 53 -8 66 -8 8 -33 14 -54 14 -21 0 -36 4 -33 10 3 5 -2 15 -11 22 -15 11
-7 12 53 11 59 -2 69 0 54 11 -9 6 -20 12 -25 12 -4 0 -8 6 -8 14 0 7 -10 16
-22 20 -18 5 -20 8 -9 15 10 7 2 12 -30 18 -32 7 -44 14 -43 26 1 9 -5 17 -13
17 -8 0 -11 5 -8 10 3 6 -1 13 -10 17 -10 3 -21 0 -26 -8 -5 -8 -26 -14 -51
-15 -44 -1 -44 -1 -40 32 3 28 -4 42 -44 90 -57 67 -113 105 -151 103 -23 -1
-24 -2 -6 -6 15 -3 20 -9 17 -21 -5 -13 -4 -14 4 -3 6 8 17 11 32 6 22 -7 22
-7 -9 -39 -17 -18 -31 -36 -31 -41 0 -6 13 5 29 23 34 38 50 40 81 7 19 -20
21 -27 10 -40 -7 -8 -21 -15 -32 -15 -18 0 -20 5 -15 38 3 20 3 29 1 19 -3 -9
-9 -15 -13 -13 -4 3 -5 -34 -4 -82 2 -48 0 -82 -4 -77 -4 6 -30 16 -56 23 -40
10 -52 10 -77 -3 -16 -8 -31 -15 -33 -15 -2 0 -16 17 -30 39 -22 33 -30 38
-54 33 -35 -6 -62 -29 -78 -66 l-13 -30 -21 42 c-26 51 -27 88 -1 129 19 32
93 78 109 68 5 -3 20 -31 33 -62 l23 -57 5 34 c6 40 32 60 58 44 9 -6 27 -29
39 -53 25 -48 35 -41 38 28 2 43 2 44 -7 15 l-10 -31 -43 41 c-30 27 -40 43
-32 48 7 4 -7 8 -31 8 -46 0 -105 21 -134 47 -22 20 -23 51 -1 75 15 17 15 18
-3 19 -16 0 -15 2 5 10 16 6 21 14 17 26 -6 14 -3 14 15 -3 20 -17 22 -17 16
-1 -8 22 2 22 18 0 10 -14 12 -6 11 46 -1 55 2 65 23 82 35 28 98 22 122 -11
24 -32 40 -115 26 -129 -7 -7 -4 -9 11 -6 14 2 19 -1 16 -10 -5 -12 30 -45 48
-45 4 0 15 11 24 25 13 20 14 28 4 40 -7 9 -10 27 -7 45 9 42 -18 97 -57 121
-26 15 -32 24 -29 43 4 21 2 24 -15 19 -17 -4 -24 2 -36 31 -17 42 -25 44 -53
14 -34 -39 -36 -48 -11 -47 36 1 109 -13 103 -19 -3 -4 -33 -7 -65 -7 -60 -1
-60 -1 -66 32 -3 18 -13 38 -21 45 -13 11 -20 7 -43 -21 -15 -18 -33 -54 -40
-79 -11 -44 -30 -103 -36 -110 -1 -2 -13 2 -25 9 -26 13 -146 31 -224 33 -33
1 -65 -6 -92 -20 -37 -19 -41 -19 -33 -4 27 51 163 150 263 192 139 58 300 70
442 33z m-109 -73 c-10 -10 -29 15 -21 28 6 9 10 8 17 -4 6 -10 7 -20 4 -24z
m-106 -17 c0 -33 -4 -45 -15 -45 -16 0 -21 43 -9 74 12 31 24 16 24 -29z m-43
-17 c-3 -8 -6 -5 -6 6 -1 11 2 17 5 13 3 -3 4 -12 1 -19z m53 -42 c0 -2 -8
-10 -17 -17 -16 -13 -17 -12 -4 4 13 16 21 21 21 13z m225 -56 c3 -5 1 -10 -4
-10 -6 0 -11 5 -11 10 0 6 2 10 4 10 3 0 8 -4 11 -10z m15 -30 c0 -5 -7 -7
-15 -4 -8 4 -15 8 -15 10 0 2 7 4 15 4 8 0 15 -4 15 -10z m-209 -261 c19 -10
19 -11 -3 -29 -23 -18 -23 -18 -35 3 -7 12 -12 25 -13 30 0 10 28 9 51 -4z
m972 -68 c41 -39 42 -41 42 -106 0 -65 -1 -67 -42 -106 -37 -34 -48 -39 -90
-39 -93 0 -156 59 -156 145 0 85 63 145 151 145 48 0 57 -4 95 -39z m-1789 15
c55 -23 86 -73 86 -139 0 -51 -3 -60 -37 -95 -50 -52 -102 -62 -167 -33 -175
77 -59 341 118 267z m1072 -61 c-1 -8 -5 -17 -8 -21 -5 -4 -4 16 1 34 3 9 9
-1 7 -13z m136 -117 c-17 -8 -26 -8 -34 0 -9 9 -4 12 23 11 32 0 33 -1 11 -11z
m-713 -617 c10 -7 12 -32 9 -111 l-4 -103 63 69 c34 38 63 72 63 77 0 4 11 7
25 7 44 0 29 -36 -52 -130 -60 -70 -83 -90 -102 -90 -53 0 -56 8 -53 147 2 70
6 131 9 135 6 10 25 10 42 -1z m646 -131 c42 -56 75 -108 73 -118 -5 -25 -38
-27 -54 -3 -17 24 -31 26 -85 9 -35 -10 -39 -14 -39 -45 0 -28 -3 -33 -24 -33
-13 0 -26 6 -28 13 -2 6 -1 65 2 130 4 102 8 121 24 133 37 27 54 16 131 -86z
m-340 -75 c0 -123 -1 -130 -20 -130 -18 0 -21 9 -28 118 -10 132 -7 150 25
145 23 -3 23 -6 23 -133z"/>
<path d="M876 2043 c-14 -4 -17 -11 -12 -36 3 -17 8 -32 10 -34 6 -6 88 15 98
25 6 6 6 17 -1 31 -12 21 -47 26 -95 14z"/>
<path d="M1312 2000 l-22 -40 25 -6 c35 -9 39 -1 29 46 l-9 40 -23 -40z"/>
<path d="M1125 1586 c-18 -27 -17 -116 1 -116 6 0 26 3 43 6 27 6 31 11 31 40
0 25 -5 34 -22 40 -26 8 -51 -20 -43 -50 4 -18 3 -17 -7 2 -14 27 -2 69 24 86
13 8 22 6 40 -9 l23 -20 -19 23 c-25 29 -52 28 -71 -2z m40 -46 c3 -5 1 -10
-4 -10 -6 0 -11 5 -11 10 0 6 2 10 4 10 3 0 8 -4 11 -10z"/>
<path d="M1377 1478 c19 -21 31 -25 14 -5 -6 8 -9 16 -6 19 3 2 -2 5 -10 5
-13 0 -13 -3 2 -19z"/>
<path d="M1142 1437 c-12 -13 -22 -27 -22 -32 0 -4 8 2 18 13 l19 22 20 -23
c11 -12 28 -34 38 -49 9 -16 26 -28 37 -28 17 0 118 64 118 75 0 2 3 11 6 20
4 9 -7 2 -24 -15 -28 -28 -61 -42 -47 -21 3 5 -8 3 -24 -5 -33 -17 -65 -8 -96
25 -16 19 -17 24 -5 31 13 8 13 10 -1 10 -8 0 -25 -10 -37 -23z m144 -73 c-11
-7 -22 -11 -25 -8 -3 3 3 12 13 20 11 7 22 11 25 8 3 -3 -3 -12 -13 -20z"/>
<path d="M1350 1368 c-19 -16 -26 -26 -15 -20 18 9 64 53 54 52 -2 -1 -20 -15
-39 -32z"/>
<path d="M1290 956 c0 -2 7 -7 16 -10 8 -3 12 -2 9 4 -6 10 -25 14 -25 6z"/>
<path d="M1810 907 c0 -21 7 -36 20 -45 18 -11 20 -10 20 18 0 16 4 30 8 30 4
0 6 -16 4 -35 -2 -19 0 -35 4 -35 65 1 63 47 -2 78 -25 12 -47 22 -49 22 -3 0
-5 -15 -5 -33z"/>
<path d="M1338 915 c-7 -8 7 -64 20 -77 6 -6 12 -2 16 9 4 9 4 14 -1 10 -4 -5
-12 8 -18 28 -5 20 -13 34 -17 30z"/>
<path d="M1786 895 c-3 -8 -1 -15 4 -15 6 0 10 7 10 15 0 8 -2 15 -4 15 -2 0
-6 -7 -10 -15z"/>
<path d="M1206 882 c-3 -6 -1 -14 5 -17 14 -9 20 -2 10 14 -6 8 -11 9 -15 3z"/>
<path d="M1920 876 c0 -9 7 -16 16 -16 9 0 14 5 12 12 -6 18 -28 21 -28 4z"/>
<path d="M1246 867 c3 -10 9 -15 12 -12 3 3 0 11 -7 18 -10 9 -11 8 -5 -6z"/>
<path d="M1773 859 c-12 -12 -6 -49 9 -49 6 0 5 -7 -2 -15 -9 -10 -9 -15 -1
-15 6 0 11 1 12 3 0 1 2 21 5 45 6 42 -2 52 -23 31z"/>
<path d="M1960 869 c0 -2 -4 -19 -9 -37 -5 -17 -6 -32 -2 -32 10 0 24 61 16
68 -3 3 -5 3 -5 1z"/>
<path d="M1810 841 c0 -14 5 -18 20 -14 11 3 20 7 20 9 0 2 -9 8 -20 14 -17 9
-20 8 -20 -9z"/>
<path d="M1221 841 c-10 -6 -10 -10 -1 -16 13 -8 24 -1 19 14 -3 6 -10 7 -18
2z"/>
<path d="M1916 819 c-8 -44 -8 -55 3 -43 14 14 24 74 13 74 -5 0 -12 -14 -16
-31z"/>
<path d="M1873 830 c-27 -11 -32 -57 -7 -67 20 -8 34 14 32 50 -1 15 -2 27 -3
26 0 0 -10 -4 -22 -9z"/>
<path d="M1746 815 c4 -8 8 -15 10 -15 2 0 4 7 4 15 0 8 -4 15 -10 15 -5 0 -7
-7 -4 -15z"/>
<path d="M1368 793 c5 -21 7 -23 10 -9 2 10 0 22 -6 28 -6 6 -7 0 -4 -19z"/>
<path d="M1537 800 c-21 -25 -22 -46 -1 -54 22 -9 22 -9 29 25 9 40 -6 55 -28
29z"/>
<path d="M1821 811 c-8 -5 -10 -14 -6 -21 6 -9 10 -8 17 4 12 21 7 28 -11 17z"/>
<path d="M1462 791 c-10 -6 -8 -10 9 -14 26 -7 34 -3 24 12 -7 13 -15 14 -33
2z"/>
<path d="M1577 768 c-2 -18 0 -39 5 -45 7 -9 7 -13 -1 -13 -8 0 -10 -8 -6 -22
4 -16 3 -19 -3 -10 -7 10 -11 7 -15 -15 -5 -28 11 -49 26 -34 4 4 9 25 12 47
2 21 8 53 13 69 10 35 6 55 -13 55 -7 0 -15 -15 -18 -32z"/>
<path d="M1423 740 c0 -25 2 -35 4 -22 2 12 2 32 0 45 -2 12 -4 2 -4 -23z"/>
<path d="M1690 769 c0 -5 5 -7 10 -4 6 3 10 8 10 11 0 2 -4 4 -10 4 -5 0 -10
-5 -10 -11z"/>
<path d="M1450 730 c0 -29 5 -42 20 -50 17 -9 20 -6 26 27 5 29 3 39 -11 50
-29 20 -35 16 -35 -27z m35 10 c3 -6 -1 -7 -9 -4 -18 7 -21 14 -7 14 6 0 13
-4 16 -10z"/>
<path d="M1937 763 c-10 -19 -17 -63 -8 -63 4 0 11 14 15 32 6 31 3 47 -7 31z"/>
<path d="M1620 731 c0 -26 14 -41 40 -41 4 0 10 13 12 29 3 22 1 28 -11 23 -9
-3 -12 -1 -7 6 5 8 0 12 -13 12 -16 0 -21 -6 -21 -29z m35 -21 c3 -5 2 -10 -4
-10 -5 0 -13 5 -16 10 -3 6 -2 10 4 10 5 0 13 -4 16 -10z"/>
<path d="M1901 748 c1 -7 -1 -21 -6 -31 -7 -16 0 -36 9 -26 11 12 16 69 6 69
-6 0 -10 -6 -9 -12z"/>
<path d="M1853 740 c-26 -10 -29 -20 -11 -38 20 -20 36 -13 40 18 5 33 4 33
-29 20z"/>
<path d="M1507 703 c-5 -28 -2 -39 11 -49 21 -15 22 -14 32 30 7 30 5 38 -10
46 -26 14 -27 14 -33 -27z"/>
<path d="M1685 719 c-4 -11 -4 -23 -1 -26 3 -3 1 -13 -3 -22 -5 -9 -11 -35
-15 -59 -3 -24 -8 -47 -11 -53 -4 -5 0 -9 8 -9 17 0 32 43 17 48 -5 2 -3 11 6
19 10 11 14 28 12 50 -2 18 0 33 4 33 11 0 10 28 -1 35 -5 3 -13 -4 -16 -16z"/>
<path d="M1355 720 c3 -5 8 -10 11 -10 2 0 4 5 4 10 0 6 -5 10 -11 10 -5 0 -7
-4 -4 -10z"/>
<path d="M1284 707 c2 -19 26 -47 26 -31 0 6 -6 19 -14 30 -13 17 -14 17 -12
1z"/>
<path d="M1331 676 c7 -15 15 -23 17 -16 3 7 -3 19 -13 28 -15 16 -16 15 -4
-12z"/>
<path d="M1368 693 c7 -3 16 -2 19 1 4 3 -2 6 -13 5 -11 0 -14 -3 -6 -6z"/>
<path d="M1400 684 c0 -8 4 -13 9 -10 5 4 12 0 14 -6 4 -8 6 -7 6 3 1 9 -6 19
-14 23 -9 3 -15 0 -15 -10z"/>
<path d="M1714 665 c-7 -39 2 -58 16 -35 13 20 13 70 0 70 -5 0 -12 -16 -16
-35z"/>
<path d="M1605 656 c-8 -40 -1 -56 24 -56 14 0 21 10 26 36 7 41 8 39 -22 48
-19 6 -23 2 -28 -28z"/>
<path d="M1916 675 c-3 -8 -1 -15 4 -15 6 0 10 7 10 15 0 8 -2 15 -4 15 -2 0
-6 -7 -10 -15z"/>
<path d="M1250 676 c0 -2 7 -7 16 -10 8 -3 12 -2 9 4 -6 10 -25 14 -25 6z"/>
<path d="M1360 670 c0 -6 4 -9 9 -6 5 4 12 1 14 -4 3 -6 4 -5 3 2 -3 15 -26
23 -26 8z"/>
<path d="M1765 670 c-19 -7 -19 -7 2 -14 23 -7 43 -1 43 13 0 10 -20 10 -45 1z"/>
<path d="M1450 650 c0 -13 7 -20 20 -20 24 0 27 25 4 34 -23 9 -24 8 -24 -14z"/>
<path d="M1840 654 l-25 -15 25 7 c28 7 35 12 29 18 -2 2 -15 -2 -29 -10z"/>
<path d="M1230 640 c-9 -6 -10 -10 -3 -10 6 0 15 5 18 10 8 12 4 12 -15 0z"/>
<path d="M1500 631 c0 -11 5 -23 10 -26 6 -4 8 -11 5 -16 -4 -5 -2 -9 3 -9 19
0 19 47 0 59 -15 9 -18 8 -18 -8z"/>
<path d="M1761 629 c-13 -5 -22 -12 -19 -15 8 -8 58 7 58 17 0 11 -8 11 -39
-2z"/>
<path d="M1845 630 c-3 -5 -1 -10 4 -10 6 0 11 5 11 10 0 6 -2 10 -4 10 -3 0
-8 -4 -11 -10z"/>
<path d="M1553 590 c2 -33 20 -35 25 -3 2 11 -4 23 -12 26 -12 5 -15 -1 -13
-23z"/>
<path d="M1700 589 c0 -24 23 -21 28 4 2 10 -3 17 -12 17 -10 0 -16 -9 -16
-21z"/>
<path d="M1770 600 c0 -5 7 -7 15 -4 8 4 15 8 15 10 0 2 -7 4 -15 4 -8 0 -15
-4 -15 -10z"/>
<path d="M1178 588 c12 -16 13 -70 1 -62 -5 3 -9 15 -10 27 0 12 -3 16 -6 9
-3 -7 -2 -24 1 -37 7 -28 46 -35 65 -11 18 21 2 66 -26 77 -32 12 -37 11 -25
-3z"/>
<path d="M1590 571 c0 -21 5 -26 27 -28 19 -1 22 1 12 8 -10 6 -10 9 -1 9 23
0 12 28 -13 32 -22 5 -25 2 -25 -21z"/>
<path d="M1740 590 c0 -5 5 -10 10 -10 6 0 10 5 10 10 0 6 -4 10 -10 10 -5 0
-10 -4 -10 -10z"/>
<path d="M1450 580 c0 -5 5 -10 11 -10 5 0 7 5 4 10 -3 6 -8 10 -11 10 -2 0
-4 -4 -4 -10z"/>
<path d="M1751 571 c-11 -7 -4 -14 30 -28 24 -9 51 -17 59 -16 17 3 -84 -49
-144 -72 -21 -9 -36 -18 -34 -21 3 -3 53 16 110 42 l105 47 -56 28 c-31 16
-56 29 -56 29 0 0 -7 -4 -14 -9z"/>
<path d="M1700 550 c-16 -10 -15 -11 23 -28 15 -7 25 -16 22 -22 -3 -5 7 -5
25 1 16 6 30 13 30 15 0 3 -76 44 -82 44 -2 0 -10 -4 -18 -10z"/>
<path d="M1501 536 c-9 -10 6 -20 74 -49 119 -50 143 -37 34 19 -96 49 -93 48
-108 30z"/>
<path d="M1632 522 c-9 -6 -5 -12 13 -20 34 -16 34 -15 32 8 -1 21 -22 26 -45
12z"/>
<path d="M1463 514 c12 -12 152 -74 167 -74 8 0 -25 18 -74 40 -88 40 -105 46
-93 34z"/>
<path d="M1360 301 c0 -35 3 -42 16 -37 9 3 20 6 25 6 15 0 10 13 -16 45 l-24
30 -1 -44z"/>
</g>
</svg>
